<svg width="45" height="45" viewBox="0 0 45 45" fill="none" xmlns="http://www.w3.org/2000/svg">
<rect width="45" height="45" rx="5" fill="#71B219" fill-opacity="0.1"/>
<g clip-path="url(#clip0_1_1186)">
<path d="M22 9C14.8153 9 9 14.8143 9 22C9 29.1847 14.8143 35 22 35C29.1847 35 35 29.1857 35 22C35 14.8153 29.1857 9 22 9ZM22 32.9688C15.9379 32.9688 11.0312 28.0629 11.0312 22C11.0312 15.9379 15.9371 11.0312 22 11.0312C28.0621 11.0312 32.9688 15.9371 32.9688 22C32.9688 28.0621 28.0629 32.9688 22 32.9688Z" fill="#539100"/>
<path d="M21.3647 26.5672V19.2772L20.1797 19.9972C19.8947 20.1772 19.6397 20.3122 19.2947 20.3122C18.8447 20.3122 18.3347 20.0872 18.3347 19.4422C18.3347 19.0522 18.5147 18.7672 18.7997 18.6022L21.7697 16.8622C21.9797 16.7422 22.1447 16.6972 22.3547 16.6972C22.9847 16.6972 23.4647 17.1322 23.4647 17.7022V26.5672C23.4647 27.0772 22.9847 27.5272 22.4147 27.5272C21.8297 27.5272 21.3647 27.0772 21.3647 26.5672Z" fill="#539100"/>
</g>
<defs>
<clipPath id="clip0_1_1186">
<rect width="26" height="26" fill="white" transform="translate(9 9)"/>
</clipPath>
</defs>
</svg>
