<svg width="45" height="45" viewBox="0 0 45 45" fill="none" xmlns="http://www.w3.org/2000/svg">
<rect width="45" height="45" rx="5" fill="#71B219" fill-opacity="0.1"/>
<g clip-path="url(#clip0_1_1204)">
<path d="M22 9C14.8153 9 9 14.8143 9 22C9 29.1847 14.8143 35 22 35C29.1847 35 35 29.1857 35 22C35 14.8153 29.1857 9 22 9ZM22 32.9688C15.9379 32.9688 11.0312 28.0629 11.0312 22C11.0312 15.9379 15.9371 11.0312 22 11.0312C28.0621 11.0312 32.9688 15.9371 32.9688 22C32.9688 28.0621 28.0629 32.9688 22 32.9688Z" fill="#539100"/>
<path d="M24.3497 18.5122L22.3097 20.9422C23.8697 21.2272 24.9197 22.3222 24.9197 23.9422C24.9197 25.5622 23.7947 27.5272 21.1847 27.5272C20.4797 27.5272 18.0797 27.3322 18.0797 26.0872C18.0797 25.5922 18.5147 25.1572 19.0697 25.1572C19.6997 25.1572 20.0897 25.7122 21.1097 25.7122C22.4147 25.7122 22.8347 24.8122 22.8347 24.0322C22.8347 23.0422 22.1747 22.6522 21.1247 22.6522C20.7347 22.6522 20.7347 22.8172 20.3597 22.8172C19.8197 22.8172 19.3847 22.3822 19.3847 21.8272C19.3847 21.6772 19.4147 21.5572 19.4897 21.4672L21.7247 18.7522H19.3097C18.7247 18.7522 18.2747 18.3322 18.2747 17.8072C18.2747 17.2672 18.7247 16.8172 19.3097 16.8172H23.4947C24.1397 16.8172 24.5897 17.2522 24.5897 17.8372C24.5897 18.0922 24.4997 18.3322 24.3497 18.5122Z" fill="#539100"/>
</g>
<defs>
<clipPath id="clip0_1_1204">
<rect width="26" height="26" fill="white" transform="translate(9 9)"/>
</clipPath>
</defs>
</svg>
