<svg width="45" height="45" viewBox="0 0 45 45" fill="none" xmlns="http://www.w3.org/2000/svg">
<rect width="45" height="45" rx="5" fill="#71B219" fill-opacity="0.1"/>
<g clip-path="url(#clip0_1_1195)">
<path d="M22 9C14.8153 9 9 14.8143 9 22C9 29.1847 14.8143 35 22 35C29.1847 35 35 29.1857 35 22C35 14.8153 29.1857 9 22 9ZM22 32.9688C15.9379 32.9688 11.0312 28.0629 11.0312 22C11.0312 15.9379 15.9371 11.0312 22 11.0312C28.0621 11.0312 32.9688 15.9371 32.9688 22C32.9688 28.0621 28.0629 32.9688 22 32.9688Z" fill="#539100"/>
<path d="M25.0097 26.4622C25.0097 26.9872 24.5597 27.4072 23.9747 27.4072H19.0397C18.4097 27.4072 17.9747 26.9722 17.9747 26.4172C17.9747 26.2072 17.9897 25.9372 18.0947 25.7122C18.6947 24.3922 19.7897 23.4322 20.8547 22.4722C21.6797 21.7222 22.8797 20.8672 22.8797 19.7572C22.8797 18.9922 22.3997 18.3922 21.4697 18.3922C20.9597 18.3922 20.5697 18.4822 20.2097 18.6322C19.8797 18.7672 19.5797 19.0372 19.1447 19.0372C18.6347 19.0372 18.1247 18.6772 18.1247 18.1222C18.1247 17.0272 20.2697 16.5622 21.4847 16.5622C23.6747 16.5622 24.9497 17.9122 24.9497 19.6072C24.9497 20.8822 24.4547 21.7222 23.7647 22.4422C22.7597 23.4922 21.4397 24.4222 20.6297 25.5322H23.9747C24.5597 25.5322 25.0097 25.9372 25.0097 26.4622Z" fill="#539100"/>
</g>
<defs>
<clipPath id="clip0_1_1195">
<rect width="26" height="26" fill="white" transform="translate(9 9)"/>
</clipPath>
</defs>
</svg>
